<?xml version="1.0" encoding="UTF-8"?><svg id="Calque_2" xmlns="http://www.w3.org/2000/svg" viewBox="0 0 204.75 87.01"><defs><style>.cls-1{fill:#fff;}.cls-2{fill:#f2f7f8;}.cls-3{fill:#ceeaf0;}</style></defs><g id="Layer_1"><path class="cls-2" d="m189.52,49.01c-3.77.1-6.81.82-8.8,1.43.05-.92.21-6.38-4.75-10.66-4.86-4.19-11.06-4.17-12.75-4.1-2.61.1-4.92,1-9.56,2.73-3.52,1.31-6.36,2.63-8.33,3.61-1.82-2.27-4.65-5.38-8.64-8.43-3.18-2.43-5.6-4.27-9.33-5.44-6.06-1.91-12.34-.96-15.94,1.03-3.39,1.87-5.37,4.81-5.58,5.13-.73,1.08-1.19,1.93-1.5,2.58-.73,1.52-.81,1.72-.89,1.76-.52.08-1.4-3.56-1.68-4.64-1.31-5.16-3.36-9.62-3.84-10.63-2.16-4.51-5.26-7.24-7.21-8.95-11.78-10.36-29.74-7.39-31.02-7.16-5.65,1.04-19.52,3.6-25.02,15.7-4.02,8.83-1.26,17.63-.26,20.42-.02,0-2.29.27-2.31.27-1.16.13-2.31.27-2.31.27-2.94.06-3.48-.44-6.44-.54-2.24-.07-4.72-.16-7.04,1.13-.54.3-3.06,1.7-3.64,4.13-.57,2.4,1.22,3.87.2,4.92-.8.82-2.13.17-4.35.68-2.15.49-4.36,1.93-5.54,3.9-1.38,2.3-1,4.72-.47,8.07.22,1.43.6,3.7,1.94,6.27,1.92,3.66,4.62,5.66,6.05,6.7,5.93,4.3,15.77,6.88,23.98,3.46,3.43-1.43,2.3-2.13,10.54-7.01,0,0,7.43-4.29,12.8-3.75,3.22.32,2.91,1.86,6.02,2.09,5.78.43,8.43-4.46,12.51-3.42,2.63.66,1.88,2.82,5.39,4.68,3.88,2.06,8.51,1.39,11.58.94,4.32-.63,7.29-2.14,7.93-2.47,3.38-1.77,3.65-3.05,5.57-3.83,4.54-1.83,10.19,3.09,14.25,4.16,19.37,5.12,46.81,2.85,54.72-4.92.95-.94,1.19-1.93,2.59-2.8,6.15-3.83,14.91,3.39,21.44.01,3.29-1.7,4.7-5.41,4.73-8.17,0-.63.11-3.96-2.68-6.4-3.38-2.96-8.46-2.83-12.35-2.73Z"/><path class="cls-1" d="m71.31,76.65c-11,3.93-21.56,8.9-37.74,8.81-18.64-.11-25.87-6.9-28.29-9.59-1.49-1.65-5.86-6.51-5.22-12.82.12-1.22.94-7.49,5.96-9.54,2.9-1.19,5.71-.36,6.77.02-.3-.92-1.39-4.62.53-8.07,2.43-4.36,8.13-5.55,12.23-4.47,2.28.6,3.88,1.85,4.76,2.68-.88-1.55-1.98-3.88-2.64-6.88-1.46-6.63.27-12.02.95-14.07,3.2-9.57,11.02-14.6,13.93-16.48C59.22-4.51,78,1.81,79.09,2.2c3.92,1.39,16.21,5.75,21.62,18.19,2.69,6.18,2.62,11.94,2.32,15.22.33-1.6,1.1-4.2,3.13-6.62,3.77-4.5,9.2-5.16,11.69-5.47,7.28-.89,12.94,2.1,15.66,3.58,7.44,4.06,11.28,10.17,12.89,13.19.87-.92,7.27-7.46,16.85-6.7,5.9.47,12.93,3.69,16.01,10.13,1.22,2.55,1.51,4.95,1.56,6.58,1.08-1.04,4.35-3.88,9.23-4.18,5.35-.33,10.87,2.51,13.26,7.12.42.8,1.3,2.55,1.23,4.9-.13,4.82-4.15,8.66-7.71,10.14-5.22,2.17-10.76-.19-12.21-.75-16.65-6.53-72.19-5.59-113.32,9.12Zm81.41-.34s15.97-.36,22.99-7.27c.35-.35.61-.71.86-1.06.42-.59.85-1.2,1.74-1.75,3.17-1.98,7.08-1.04,10.87-.13,3.64.87,7.41,1.78,10.58.14,3.2-1.65,4.65-5.25,4.68-8.09-.21-.91-.64-2.19-1.57-3.48-3.9-5.43-12.12-4.65-12.97-4.56-4.84.53-8.17,3.15-9.62,4.46-.48-1.8-1.8-5.77-5.43-9.29-1.2-1.16-4.66-4.54-9.92-5.2-6.01-.76-10.93,2.29-15.87,5.4-1.69,1.06-3.02,2.07-3.95,2.82-.49-2.14-2.51-9.71-9.51-14.04-9.66-5.99-22.88,1.31-27.81,3.93-2.94,1.56-5.18,3.16-6.6,4.27.04-1.54.08-9.1-5.71-14.94-1.43-1.44-4.87-4.92-9.67-5.27-9.97-.74-12.63,12.92-25.05,14.5-6.77.86-9.92-2.7-15.38,0-4.14,2.05-6.39,6.1-7.66,9.36-1.61-.57-6.88-2.2-12.09.26-1.5.71-4.2,1.98-5.4,4.97-.82,2.04-.57,3.94-.37,4.91-1.06.45-6.43,2.87-8.71,8.91-.3.79-1.95,5.17-.43,9.29,2.74,7.41,14.02,9.25,17.27,9.78,15.14,2.48,21.33-5.08,53.82-9.06,0,0,.73-.11,1.71-.2,4.39-.4,12.18-.1,69.21,1.36Z"/><path class="cls-3" d="m191.57,65.03c-1.47.07-6.9.17-11.49-3.29-1.63-1.23-2.81-2.65-3.59-3.58-2.49-2.99-2.38-4.14-4.18-6.22-2.75-3.17-6.29-4.28-7.18-4.55-3.97-1.19-7.34-.35-9.36.18-5.34,1.4-8.81,4.58-10.44,6.33-2.4-2.15-10.12-8.5-21.92-9.35-9.68-.69-16.97,2.69-19.97,4.3-1.66-1.46-4.24-3.25-7.51-3.43-4.87-.27-8.1,3.41-11.78,5.85-4.01,2.67-10.68,5.33-21.98,4.21-.94,1.26-6.71,8.73-17.2,9.88-11.17,1.23-18.73-5.68-19.8-6.69-1.39.24-3.59.8-5.91,2.22-1.38.85-3.64,2.21-4.72,4.53-2.02,4.34.74,9.15,1.42,10.34,4.31,7.51,14.39,9.17,17.61,9.7,14.43,2.37,27.72-3.52,40.01-4.03,1.91-.08,4.45-.18,7.8.25,3.24.42,4.39.98,7.64,1.42,0,0,3.39.46,8,.31,8.77-.29,24.5-4.73,26.39-5.25,24.2-6.65,50.92,5.71,56.07-1.81.32-.47,1.01-1.8,2.59-2.8,3.28-2.08,5.67-.62,10.62-1.69,1.38-.3,6.24-1.41,9.4-5.41.56-.71,2.09-2.75,2.54-5.84.27-1.8.07-3.31-.13-4.28-.3,1.13-.9,2.8-2.22,4.38-3.29,3.95-8.42,4.21-10.7,4.32Z"/><path class="cls-3" d="m165.05,78.93c.6.42,1.47-.62,3.19-1,1.92-.43,3.76-.19,4.65-.08.78.1,2.68.34,4.16,1.21,2.16,1.26,2.67,3.38,1.46,4.93-1.64,2.11-6.05,2.96-9.15,3.02-5.63.12-6.72-2.34-12.44-2.42-4.68-.06-4.89,1.44-11.53,2.11-2.12.22-10.09,1.02-14.89-1.58-.78-.42-3.75-2.17-2.85-3.92.62-1.21,2.94-2.14,5.04-2.34,1.79-.17,3.14.44,3.42-.08.21-.4-.5-.84-.91-2.02-.54-1.54-.09-3,.07-3.53.61-2,2.05-3.09,2.5-3.42,2.62-1.93,6.28-1.72,8.74-.5,2.75,1.36,4.28,3.86,4.28,3.86.77,1.26.9,2.16,1.78,2.46,1.09.38,1.43-.79,3.89-1.22,2.13-.37,4.08.13,4.4.22.06.02.11.03.15.04.4.11,2.81.81,3.59,2.58.41.93.04,1.4.45,1.69Z"/><path class="cls-1" d="m101.24,82.2c-.88-.25-2.16-.64-3.75-1.21-.78-.28-1.4-.52-1.93-.73-1.33-.52-2.13-.83-3.65-1.03-1.89-.25-2.99-.08-4.52.16-.99.16-2.23.35-3.99.46-7.14.47-14.45.97-17.04-2.75-1.54-2.21-1.16-5.57.11-7.79,2.17-3.78,7.68-5.55,13.22-3.54.35-1.57,1.06-3.67,2.61-5.68,3.58-4.62,10.42-7.19,16-5.12,2.09.77,3.51,2.02,4.28,2.79,1.38-2.08,4.52-6.16,10.04-8.56,7.2-3.12,13.85-1.35,17.51-.38,7.57,2.01,12.59,6.27,15.08,8.75.25-.23,4.91-4.36,10.98-2.61,4,1.16,7.08,4.42,8.02,8.51,1.99-.8,4.59-1.48,7.62-1.44,1.92.02,6.09.13,9.87,2.98,1.62,1.22,3.98,3,4.07,5.53.14,3.86-5.05,6.99-7.92,7.88-3.05.94-6.43,1.08-7.39,1.1-1.87.04-2.92-.12-3.84-.27-.95-.15-1.78-.28-3.3-.16-1.81.13-2.89.48-3.93.82-1.17.37-2.37.76-4.54.84-2,.07-3.56-.16-4.8-.34-2.59-.38-3.94-.89-5.03-1.29-1.05-.39-1.82-.68-3.21-.68-1.69-.01-2.67.41-3.69.85-1.08.46-2.2.94-4.19.9-1.2-.03-1.92-.23-2.68-.44-.84-.23-1.7-.47-3.35-.56-2.46-.12-4.38.23-5.42.42-1.97.36-2.93.81-4.04,1.33-1.02.47-2.18,1.01-4.3,1.59-1,.27-1.91.52-2.86.7-.43.08-1.71.28-3.14.3-2.1.02-3.69-.43-6.88-1.34Z"/><path class="cls-2" d="m144.47,61.32c-1.51-1.33-3.74-3.07-6.7-4.65-1.37-.73-6.2-3.31-11.36-3.73-9.82-.8-17.49,6.51-19.09,8.11-4.97-3.79-10.87-3.96-13.86-1.21-1.53,1.41-3.42,4.63-2.48,6.81.52,1.21,2.21,2.78,1.69,3.61-1.18-.81-3.75-2.41-7.22-2.42-.68,0-6.45-.02-7.75,3.36-.63,1.64-.06,3.7,1.05,5.02,3.09,3.69,10.78,2.15,11.23,2.06,0,0,3.08-.65,5.96-.66.85,0,1.68.11,1.68.11,2.52.33,2.79,1.01,8.1,2.57,3.96,1.16,5.03,1.21,5.86,1.15,1.95-.13,3.03-.78,4.39-.42,1.01.26.9.75,2.06,1.39,1.56.87,3.59,1.01,4.06,1.04,3.86.27,7.01-1.56,7.43-1.82,2.29-1.38,2.16-2.64,4.42-3.08,1.12-.22,2.11-.1,2.74-.02,2.94.35,3.55,1.64,6.94,2.79,1.42.48,2.79.75,3.58.87,6.71.97,10.51-3.86,19.19-3.91,4.4-.03,4.59,1.21,8.51.85,4.61-.42,9.77-2.65,11.11-6.06,1.01-2.58-.3-5.44-3.68-7.28-2.68-1.46-5.03-1.95-8.75-2.04-2.74-.07-6.83.15-11.71,1.59-.63-1.2-1.99-3.34-4.55-4.77-5.94-3.3-12.49.53-12.84.74Z"/><path class="cls-1" d="m133.37,69.61c.6.42,1.47-.62,3.19-1,1.92-.43,3.76-.19,4.65-.08.78.1,2.68.34,4.16,1.21,2.16,1.26,2.67,3.38,1.46,4.93-1.64,2.11-6.05,2.96-9.15,3.02-5.63.12-6.72-2.34-12.44-2.42-4.68-.06-4.89,1.44-11.53,2.11-2.12.22-10.09,1.02-14.89-1.58-.78-.42-3.75-2.17-2.85-3.92.62-1.21,2.94-2.14,5.04-2.34,1.79-.17,3.14.44,3.42-.08.21-.4-.5-.84-.91-2.02-.54-1.54-.09-3,.07-3.53.61-2,2.05-3.09,2.5-3.42,2.62-1.93,6.28-1.72,8.74-.5,2.75,1.36,4.28,3.86,4.28,3.86.77,1.26.9,2.16,1.78,2.46,1.09.38,1.43-.79,3.89-1.22,2.13-.37,4.08.13,4.4.22.06.02.11.03.15.04.4.11,2.81.81,3.59,2.58.41.93.04,1.4.45,1.69Z"/><path class="cls-3" d="m125.36,76.9c-.52-.17-1.2-.48-2.31-.43-3.37.17-7.16,1.06-9.85,1.37-3.4.39-6.08-.05-6.09-.2,0-.18,3.72.34,8.23-1.17,2.92-.98,3.3-1.85,6.42-2.57,1.7-.39,3.5-.79,5.65-.34,2.93.61,2.95,2.05,5.12,2.34,3.31.44,4.1-2.81,8.33-3.28,3.42-.38,4.06,1.62,7.38,1.07,3.08-.51,3.14-2.27,6.59-3.74,3.48-1.48,8.52-1.67,11.73.73,2.77,2.07,1.81,4.28,4.29,6.03,4.75,3.36,12.73-2,13.2-1.06.48.98-7.82,7.59-13.2,6.27-1.49-.37-2.84-1.36-5.16-1.17-.86.07-2.29.35-3.31-.49-.42-.35-.45-.61-.8-.76-1.09-.47-2.73,1.4-3.75,2.28-4.19,3.61-12.86,3.43-15.8.14-.58-.65-.99-1.48-1.95-1.66-1.54-.29-2.18,1.54-4.19,1.95-2.11.43-4.21-1.02-6-2.27-1.88-1.31-2.47-2.36-4.54-3.04Z"/></g></svg>