<?xml version="1.0" encoding="UTF-8"?>
<svg id="Calque_2" data-name="Calque 2" xmlns="http://www.w3.org/2000/svg" viewBox="0 0 289.17 236">
  <defs>
    <style>
      .cls-1 {
        fill: #142030;
      }
    </style>
  </defs>
  <g id="_ÎÓÈ_1" data-name="—ÎÓÈ_1">
    <g>
      <path class="cls-1" d="m176.17,135.79c2.2.35,3.86-.37,5.01-2.35.87-1.52,2.26-2.06,3.71-1.93-2.39,3.09-4.85,6.12-7.1,9.29-.7.99-.37,2.27.44,3.34.45.6,1.05,1.4.97,2.03-.22,1.68-1.53,3.06-.59,5.09.68,1.48.46,3.38.66,5.28-2.53.8-4.31,1.82-5.38,4.37-1.02,2.43-3.99,2.98-6.32,3.01-1.32,1.74-2.33,3.22-3.5,4.56-.89,1.02-1.86,2.11-3.02,2.75-6.2,3.43-11.26,8.02-15.2,13.93-2.63,3.94-5.54,7.68-8.63,11.92-1.69-2.29-2.38-4.44-1.7-6.82.9-3.15.57-6.3.49-9.49-.27-10.55-.38-21.1-.63-31.65-.1-4.18-.36-8.35-.64-12.52-.46-6.95-1.17-13.88-1.45-20.84-.3-7.53-1.17-15.04-1.07-22.6.04-2.93-.58-5.88-1.06-8.8-.11-.67-.91-1.23-1.51-1.99.56-2.98,2.44-5.85,1.61-9.13-.07-.26-.57-.4-.87-.6-.3.22-.76.37-.87.66-.64,1.66-1.37,3.32-1.76,5.05-3.04,13.37-5.88,26.74-6.5,40.54-.47,10.56-.44,21.07.1,31.61.21,4.16.09,8.34.38,12.49.33,4.75.69,9.52,2.65,14,.89,2.02,1.49,4.17-.64,5.57-3.79-.92-7.23-1.77-10.67-2.6-2.04-.49-3.38.34-4.2,2.56-1.24-.71-2.38-1.35-3.83-2.18-.13,1.4-.24,2.62-.35,3.85-2.65.12-3.32-2.33-5.19-3.25-.56.36-1.18.77-2.05,1.34-1.51-.97-3.12-2-5.04-3.22-.7,1.2-1.27,2.17-1.83,3.13-.39.08-.82.32-1.12.21-1.46-.55-2.88-1.2-4.32-1.82-2.67,1.85-6.35-.14-9.02,2.47.31.4.57.91.98,1.2.46.33,1.06.47,1.59.7-.05,1.24-1.02,1.21-1.63.99-1.1-.39-2.06-1.16-3.15-1.62-.69-.29-1.92-.7-2.17-.42-1.69,1.93-3.8.53-5.63.95-1.69.39-3.13,1.68-5.02,1.5-.17-.02-.36.15-.78.33-.23,1.17-.49,2.5-.77,3.89-.55.09-1.2.39-1.63.21-1.26-.53-2.43-1.25-3.97-2.09-.55,1.1-1.05,2.11-1.76,3.51-1.56-.66-3.16-1.33-4.75-2h.1c-1.99-1.63-1.93-4.87-4.95-6.05-5.84,4.41-11.84,8.85-17.13,13.91,1.09,2.24,2.72,2.31,3.8,1.57,1.5-1.03,2.8-.8,4.42-.7,3.14.19,6.32.03,9.38-1.14,1.24-.47,2.71-.48,4.08-.45,8.15.18,16.3.64,24.44.58,4.32-.03,8.65,1.03,13.04-.28,1.69-.5,3.83.75,5.79.86,5.16.28,10.33.34,15.5.53,7.75.29,15.47.82,23.12,2.24,4.09.76,8.26,1.14,12.4,1.62.77.09,1.58-.1,2.37-.2,11.04-1.45,22.07-2.94,33.12-4.33,3.74-.47,7.52-.64,11.29-.98.94-.08,1.87-.28,2.79-.42-1.41-14.25-1.07-28.32-3.35-42.54-.98.54-1.76.97-2.91,1.61-.18-.76-.67-1.62-.43-2.02,2.34-3.73,2.78-7.52,1.57-11.83-.55-1.96-.12-4.46.59-6.46.76-2.13.94-4.18,1.01-6.37.21-7.12.56-14.24.85-21.39,1.3-.58,1.95.27,1.81,1.29-.42,3.18-.49,6.24.52,9.39.43,1.36-.43,3.09-.53,4.67-.14,2.06.77,3.44,2.95,3.74-1,2.98-2.05,5.94-2.96,8.95-.17.56.24,1.29.64,3.11,2.05-3.08,3.39-5.77,6.8-5.22.55.09,1.35-.76,1.9-1.31,2.09-2.07,4.13-4.19,6.42-6.54,4.86-.04,7.8-2.82,8.53-7.64,1.04-.16,1.74-.27,2.61-.4-.3-1.95-.57-3.69-.83-5.43,1.3,1.67,2.59,3.34,4.22,5.44q-1.64-5.76-4.57-8.6c.22,1.43.36,2.37.51,3.31-.74-.19-1.47-.39-2.34-.62-.47,1.3-.63,2.62-1.35,3.44-.83.94-2.16,1.44-3.93,2.54.56-1.68.87-2.75,1.27-3.8,1.11-2.93.2-4.96-2.84-6.27-1.73.83-3.07,2.25-4.17,3.92-3.36,5.12-6.71,10.24-10.06,15.36.55-3.8,1.91-7.26,4.06-10.47,1.44-2.15,2.58-4.49,3.92-6.7,1.55-2.55,3.15-5.1,5.68-6.83,2.52-1.72,2.98-4.06,2.23-6.81-.15-.57-.37-1.12-.54-1.63-1.37-.38-1.81.5-2.24,1.41-1.7,3.57-4.21,6.57-6.96,9.56.08-.48.04-1.02.26-1.42,2.3-4.18,4.78-8.27,6.92-12.53,1.18-2.35,1.09-4.88-.93-7.59-.71.87-1.25,1.37-1.59,1.98-1.44,2.61-2.72,5.32-4.25,7.87-1,1.67-2.34,3.13-3.53,4.69l.16.13c.77-4.62,3.65-8.3,5.52-12.43.81-1.8,2.1-3.47,2.51-5.34.5-2.31,2.09-3.22,3.79-4.22.12,1.91-1.14,4.12,1.76,6.12-.71-2.48-1.24-4.3-1.76-6.11-1.15-1.39-2.3-2.78-3.6-4.36-1.23.94-2.35,1.79-3.47,2.65l.17.13c-.55-1.72.6-3.02,1.03-4.52.38-1.33-.31-2.27-1.87-2.49-.34.42-.86.82-1.04,1.34-1.83,5.51-4.72,10.51-7.54,15.53-.33.58-.53,1.64-1.69.84,2.26-4.87,4.5-9.73,6.79-14.57.42-.89,1.03-1.68,1.53-2.54,1.7-2.96,1.54-3.55-1.73-6.29-.51-1.39-.94-2.81-1.55-4.15-.33-.73-1.03-1.02-1.79-.39-.38-2.17-.44-4.49-2.75-5.74-1.29-1.56-.38-4.34-3.19-5.35-.02,2.46-.87,4.84.55,7.65,1.11-1.01,1.93-1.76,2.75-2.51-.89,2.42-1.78,4.83-2.78,7.55-1.27-.2-2.38-.38-3.78-.6-.56-2.05-1.12-4.09-1.72-6.26-1.07.31-1.97.84-2.72.67-.48-.1-1.06-1.24-1.04-1.9.09-3.15-.25-6.32,1.44-9.31.7-1.25.56-3.06.55-4.61-.02-3.38-.21-6.76-.3-10.13-.03-.99.14-1.95,1.2-2.84,1.5,1.27,2.28,2.87,2.73,4.48.63,2.26.51,4.72,2.62,6.43.42.34.24,1.48.24,2.25-.02,2.25.24,4.52,1.77,6.18,2.75,2.99,3.76,6.91,5.91,10.2,2.26,3.46,4.32,7.05,6.55,10.53.51.8,1.38,1.98,2.05,1.96,3.01-.1,3.5,2.06,4.25,4.11,2.01,5.5,4.87,10.43,9.52,14.17.58.47.93,1.24,1.36,1.89,1.09,1.64,1.86,3.68,3.33,4.84,2.24,1.79,2.8,4.21,3.64,6.61-1.74-.02-2.96-.78-3.65-2.41-.52-1.21-.67-2.78-2.49-2.9-.78,1.09.14,1.84.56,2.63.55,1.02,1.59,1.88,1.84,2.94.89,3.77,3.4,6.62,5.17,9.9,1.14,2.12,2.83,3.15,5.22,3.05-.03,1.29.69,1.62,1.82,1.44.08.47.15.91.23,1.35-.07-.43-.13-.86-.2-1.29-.58-.56-.72-1.74-1.95-1.37-.17-.74-.17-1.6-.55-2.21-1.45-2.36-3.12-4.58-4.51-6.97-.77-1.31-1.15-2.85-1.7-4.29,1.44,1.85,3.1,3.58,4.29,5.58,6.2,10.42,12.26,20.92,18.43,31.36,1.81,3.06,3.47,6.16,6.43,8.48,1.78,1.4,2.72,3.86,4.09,5.82,1.82,2.6,3.68,5.16,5.53,7.74.11.15.4.21.46.37.53,1.43.82,3,1.61,4.25.66,1.04,2.91-.09,3.33,2.31-.99.86-2.15,1.85-3.33,2.87-.68-.22-1.35-.25-1.76-.59-1.19-1-2.28-2.12-3.68-3.44-1.7,1.04-3.36,2.05-5.3,3.23-15.68-.15-40.78,9.08-56.1,23.74-.86-.21-1.78-.45-2.71-.68-.24.26-.61.48-.68.77-.19.77-.37,1.57-.35,2.36.06,2.36,1.42,3.71,3.7,3.74.59,0,1.19-.1,1.78-.15,9.89-.84,19.77-1.74,29.67-2.48,6.72-.5,13.5-.35,20.15-1.7,2.81.81,5.47.43,8.01-.99.17-.09.42-.17.58-.12,3.6,1.31,6.53-.26,9.42-2.11.48-.31,1.12-.4,1.7-.51,5.67-1.04,11.34-2.08,17.02-3.08.36-.06.77.11,1.16.18.85.93.6,1.83-.21,2.58-5.96,5.52-11.56,11.47-18.62,15.69-2.73,1.63-5.41,3.33-8.12,4.99-.51.31-1.22.46-1.53.9-3.12,4.39-8.56,4.59-12.74,7.08-1.49.89-3.42,1.01-5.09,1.63-.86.31-1.6.94-2.92,1.75,4.62,2.33,8.75.9,12.73.63,4.14-.28,8.29-1.01,12.34-1.98,4-.96,8.3-.69,11.73-3.17,1.03,1.06.76,1.74-.09,2.06-1.85.71-3.71,1.51-5.65,1.88-10.95,2.08-21.85,3.7-33.15,3.47-12.47-.26-25.05-.8-37.49.9-4.85.66-9.74,1.29-14.38,3.15-1.12.45-2.67-.24-4.01-.18-.92.04-2.04.24-2.68.81-.6.55-.69,1.66-1.04,2.62-.23.07-.66.36-.96.26-5.73-1.97-11.41-.94-17.04.36-6.76,1.57-13.49,3.27-20.23,4.94-1.78.44-3.52.64-5.49-.66.31-.94.65-1.95,1.01-3.01-.75-1.62-2.31-2.12-3.83-2.46-.69-.16-1.52.29-2.28.48-.75.18-1.67.75-2.22.49-3.75-1.76-5.88.96-8.3,2.84-.61.48-.98,1.28-1.59,1.77-1.49,1.18-2.92,1.03-4.19-.42h-.02q2.51-1,1.75-3.83c-2.03.02-4.21-.23-6.25.17-1.29.26-2.28-.03-3.41-.29-1.8-.41-3.5-.21-5.3,1.32.49.56.84,1.27,1.41,1.57,1.13.58,2.39.93,4.56,1.74-1.66.25-2.24.5-2.74.4-5.63-1.19-11.23-2.49-16.86-3.63-2.9-.59-5.85-1.01-8.79-1.33-9.55-1.02-18.58-3.87-27.34-7.67-.45-.2-.7-.87-1.04-1.33l-.11.11c2.49.65,5.09,1.04,7.45,2.01,5.18,2.12,10.46,3.67,16.03,4.44,6.68.93,13.3,2.25,19.95,3.37,1.12.19,2.26.2,3.25.28.92-1.55.1-2.27-.8-2.62-3.12-1.23-6.28-2.35-9.45-3.45-.53-.18-1.31-.29-1.72-.03-2.24,1.45-4.1.28-6.16-.53-5.34-2.1-10.74-4.02-16.13-6.02-.55.95-.92,1.58-1.49,2.57-1.09-1.17-1.92-2.61-3.17-3.26-2.27-1.2-4.8-1.89-7.19-2.87-1.82-.74-3.59-1.64-5.41-2.39-.69-.28-1.8-.75-2.16-.45-1.93,1.57-3.5.51-4.77-.68-2-1.89-4.4-2.56-6.95-3.13-2.91-.65-5.76-1.63-8.7-2.1-2.69-.43-5.46-.39-8.54-.58-1.29-.51.39-2.94-1.83-3.56-1.38-.38-2.47-1.82-3.55-2.67-2.23-.42-4.35-.75-6.43-1.26-.32-.08-.44-.99-.72-1.68,1.31-.6,2.66-.97,3.7-1.76,1.1-.84,2.12-.88,3.33-.57,1.15.3,2.32.56,3.48.83,2.25.53,4.28.4,6.07-1.39,1.63-1.63,3.63-2.14,6.02-1.91,1.24.12,2.92-.35,3.78-1.19,2-1.94,5.41-2.78,5.35-6.56-.01-.66,1.31-1.39,2.09-1.99,1.9-1.45,3.85-2.82,5.75-4.25,2.35-1.77,2.16-4.24-.42-5.68-1.6-.89-3.26-1.4-5.14-1.17-2.63.31-5.14-.03-7.29-1.77,1.74-.27,3.48-.54,4.93-.76,1.18-1.74,2.15-3.16,3.87-5.69-.16,2.79-.25,4.28-.34,6,1.19.41,2.26.85,3.38,1.15,1.1.3,2.23.46,3.59.73,1.72-4.23,3.43-8.22,4.92-12.28.37-1.02.06-2.29.07-3.44.99-.4,1.98-.8,2.96-1.2-.39,2.45-.79,4.89-1.2,7.45.66.31,1.34.63,2.02.96-.47,1.51-.97,3.01-1.41,4.53-.21.74-.37,1.52-.39,2.29-.01.31.32.75.62.92.29.17.87.23,1.08.05,2.11-1.8,4.36-3.48,6.2-5.52,7.96-8.83,16.48-17.19,23.27-27.03,1.02-1.47,2.17-2.85,3.26-4.27,3.15-4.08,6.29-8.17,9.44-12.24,3.26-4.21,5.52-9.12,9.14-13.09.47-.52.69-1.45.68-2.19-.02-1.31.14-2.25,1.61-2.73,1.46-.48,2.04-1.73,2.18-3.26.06-.71.24-1.66.73-2.04,3.17-2.5,5.08-5.93,6.97-9.34,1.12-2.01,2.7-3.95,1.91-6.66-.21-.72.58-1.81,1.07-2.64,3.31-5.63,6.65-11.24,8.51-17.57.03-.12.33-.16.85-.39,1.98,3.2-.9,6.18-.83,9.61,3.5-3.78,5.06-7.51,4.86-11.41-.38-7.34-.8-14.68-1.26-22.02-.04-.61.26-1.73-1.31-1.57-.28.62-.66,1.3-.9,2.03-1.96,6.07-4.73,11.78-7.39,17.56-1.41,3.06-2.91,6.23-3.42,9.5-.69,4.49-3.89,7.8-4.82,12.1-.12.54-1.28,1.32-1.78,1.21-.8-.18-1.46-1.02-2.13-1.54q3.52-6.72,3.22-9.54c-2.11,3.02-4.37,5.48-5.83,8.57-2.36,5.01-4.82,9.97-7.28,14.93-.13.26-.68.31-1.04.47-1.26.86-3.28-.14-4.13,1.68-1.31,2.81-2.61,5.63-3.86,8.48-.07.15.37.53.87,1.18,2.22-4.01,3.39-8.55,7.12-11.35-.04,1.08-.07,2.16-.12,3.77,3.8-1.45,5.88-4.77,9.31-5.63.65,1.54-.34,2.15-1.02,2.72-2.27,1.92-4.56,3.82-6.95,5.58-5.35,3.95-8.92,8.98-9.84,15.69-.11.79-.25,1.57-.45,2.34-.28,1.05-1.65,2.01-2.15,1.48-.46-.48-.81-1.41-.68-2.03.24-1.14.94-2.18,1.31-3.31.46-1.44,1.29-2.86.6-4.73-.54.54-1.07.84-1.28,1.3-1.39,3.07-3.21,5.94-3.76,9.38-.27,1.72-.75,3.6-3.07,3.84l.15.1c-1.03-3.65,3.1-6.43,1.75-10.16-.09-.25.29-.72.51-1.04.45-.65.97-1.26,1.42-1.91.56-.81,1.16-1.6,1.62-2.47.4-.77.3-1.5-.93-1.9-2.22,1.49-4.81,3.33-5.03,6.1-.25,3.27-2.04,5.49-3.47,8.03-1.07,1.92-2.09,3.82-2.25,6.1-.08,1.15-.47,2.33-.97,3.38-1.09,2.3-2.35,4.52-3.71,7.09-.72-1.06-1.42-2.11-2.05-3.04,3.94-6,4.77-8.09,4.49-11.61-.74.59-1.55.94-1.86,1.55-1.1,2.1-2.38,4.21-2.92,6.48-.62,2.58-1.63,4.87-3.02,7.08-.51.82-.78,1.79-1.15,2.67.72,1.08,1.35,2.02,2.12,3.18-4.39,3.86-6,9.29-8.39,14.27-1.19,2.49-1.87,5.28-4.12,7.15-.2-2.26.79-4.16,1.7-6.1.82-1.76,1.66-3.51,2.41-5.3.27-.64.67-1.45-.39-1.9-1.93,1.32-2.13,4.23-4.63,5.03-.25-.64-.34-1.61-.79-1.84-.88-.44-1.28.4-1.47,1.18-.14.55-.22,1.11-.33,1.66-2.85.92-4.72,2.33-4.67,5.87.03,2.72-1.49,5.13-3.67,7.03-2.14-2.08-.05-4.03-.53-5.83-1.13-.67-2.24-1.33-3.66-2.17,1.33-1.53,2.38-2.67,3.35-3.88.5-.63.86-1.37-.64-2.12-3.37,2.99-4.07,7.77-6.74,11.27-.38-.02-.77.02-1.13-.06-.38-.08-.73-.38-1.11-.41-1.56-.11-2.67.95-2.47,2.51.09.74.6,1.44.93,2.15-3.34.33-6.67.68-10.01.99-.58.05-1.19-.01-1.75-.14-4.44-1.01-8.87-2.03-13.29-3.1-.66-.16-1.25-.61-1.67-1.57,1.12.16,2.23.3,3.34.49,2.79.48,4.59-.94,5.66-3.26,1.06-2.3,2.13-4.61,1.62-7.37-.42-2.24,1.22-3,3.12-3.34.84,1.68-.52,2.7-.88,3.95-.38,1.33-.99,2.59-1.33,3.92-.44,1.71-.83,3.45-.98,5.2-.05.54.76,1.15,1.34,1.94,1.58-1.66,2.89-3.04,4.2-4.41l-.16-.12c.15.97.3,1.94.48,3.15,2.05-.15,1.39-2.56,2.66-3.22.06.08,1.24,3.19,1.29,3.54.53-.08,1.34.03,1.55-.28,1.13-1.62,2.2-3.29,3.12-5.04,1.01-1.91,1.85-3.91,2.96-6.3,1.38,1.47-.25,2.94.63,3.96,2.99-1.28,3.51-1.42,3.81-3.51.45-3.12,2.14-5.5,3.72-8.03,2.01-3.2,3.94-6.44,3.41-10.52-.12-.93.29-1.93.55-3.42,7.02-5.47,14.36-11.18,21.84-17.02.42.06.99.1,1.54.24,1.93.48,3.19-.07,2.78-1.51-.55-1.91.18-3.05,1.31-4.13,3-2.89,6.01-5.79,9.17-8.51,1.32-1.14,2.95-2.04,4.59-2.66,3.19-1.21,5.53-3.43,6.75-6.38,2.18-5.29,6.11-9.26,9.55-13.58,4.21-5.29,8.84-10.24,12.95-15.6,2.28-2.97,4.05-6.39,5.72-9.76,2.29-4.63,4.26-9.42,6.41-14.12,1.49-3.26,3.04-6.49,4.61-9.7.88-1.8,1.59-3.57,1.49-5.68-.34-7.54-.78-15.09.08-22.64.09-.75-.13-1.54.35-2.54.32.7.64,1.4.96,2.09,2.72,5.95,5.41,11.92,8.21,17.83.48,1.02,1.52,1.77,2.2,2.72.54.75,1,1.58,1.34,2.43.36.9.3,2.03.82,2.79,2.44,3.58,3.54,7.82,5.76,11.48.76.24,1.51.49,2.25.73.07.19.23.41.18.53-1.95,4.41,2.89,7.09,2.78,11.02,2.44,5.43,4.94,10.85,7.3,16.32.94,2.18,1.53,4.51,2.38,6.73,1.97,5.18,3.93,10.37,6.05,15.48.38.92,1.56,1.51,2.59,2.44-.11,1.24-.69,3.03-.31,4.58.45,1.83,1.74,3.45,2.94,5.68-.95,2.24-.44,4.8,1.63,7.09.5.55.88,1.32,1.03,2.04q1.53,7.02,5.03,11.6c-.81,1.34-1.77,2.8-2.59,4.33-1.39,2.58-3.59,4.79-3.71,7.97-.03.27-.06.54-.09.81-.02-.3-.04-.61-.06-.91Zm-63.32,3.91c.42,1.59,1.49-.23,2.09.4.93,1.68,1.87,3.35,3.17,5.7.35-2.62.6-4.45.86-6.45-1.75-.84-3.23-1.56-5.77-2.78.93,1.86,1.34,2.68,1.71,3.5-.73-.07-1.46-.14-2.19-.21-.07-.75-.13-1.51-.24-2.26-.02-.14-.28-.24-.42-.35-.21.28-.66.72-.59.82.39.59.9,1.1,1.37,1.63Zm101.61-36.99c-.12.33-.31.65-.34.98-.01.17.26.36.4.54-.04-.17-.1-.34-.1-.51,0-.33.03-.67.06-1-.59-.27-1.18-.54-1.85-.84.06.82.11,1.55.17,2.27-.96-.37-1.91-.74-3.22-1.24-.01,3,.21,5.38,2.32,7.74.6-.9,1.32-1.47,1.31-2.04-.03-1.54-.36-3.07-.58-4.61.62-.44,1.23-.88,1.85-1.29Zm-120.73,114.23c0,.38.02.76.02,1.13,0-.37,0-.74.01-1.11-1-.76-.83-2.76-2.74-2.56q.1,2.32,2.7,2.53Zm153.64-60.43l-.09.15c1.12.71,2.23,1.42,3.96,2.51-1.1-3.18-2.54-5.22-4.66-6.92-.9.98-1.54,1.69-2.18,2.39l.3-.16c-1.27.35-2.94-.1-3.65,1.44-1.24,2.68-3.74,3.94-5.9,5.61-1.39,1.08-2.77,2.2-3.97,3.48-.54.57-.63,1.57-1.22,3.21,3.21-1.2,5.55-2.16,7.94-2.95,3.54-1.17,6.66-2.86,8.74-6.1l-.15.11c.3-.92.6-1.85.9-2.77Zm-25.16-31.87c.72-.02,1.45-.04,2.21-.07-.14-1.82-.59-3.2-2.3-3.79-1.19,1.54.33,2.7.22,3.97-.85-.31-1.7-.63-2.79-1.03-.51,1.95-.6,3.26,1.9,3.55.26-.9.51-1.76.76-2.63Zm-7.89,35.99c1.56-.84.68-2.54,1.31-3.71.63-1.15,1.26-2.3,2.04-3.73-3.1-.39-3.84,1.99-5.35,3.07.83,1.7,1.5,3.09,2.15,4.46-1.69-.11-2.88.63-3.7,2.33,1.83-.03,2.75-1.15,3.55-2.43Zm13.49-7.91c.93-.2,1.85-.48,2.79-.6,3.25-.4,4.7-1.55,6.06-5.17-2.96,1.51-5.65,2.82-8.26,4.27-.34.19-.3,1.04-.48,1.56-1.47.12-3.48-.7-3.54,2.44,1.33-.97,2.38-1.73,3.43-2.5Zm-113.1-32.72c.23,1.09.45,2.19.67,3.22,1.16.06,1.67-.37,1.59-1.3-.12-1.5-1.17-1.78-2.43-1.72.49-3.25-1.05-6.02-2.18-8.86-.12-.3-.95-.32-1.78-.56-.09,1.42-.66,2.93-.14,3.63,1.39,1.87,1.93,4.45,4.27,5.58Zm-57.05,66.47l.1,1.45c.1-.11.3-.25.28-.32-.12-.36-.29-.69-.45-1.04.62-.46,1.25-.93,1.78-1.33-2.18-3.09-4.04-5.25-6.39-6.71-1.73.49-2.27,1.66-1.72,2.78,1.31,2.65,2.9,5.16,6.4,5.17Zm-2.33-48.22c4.01-1.29,5.48-4.82,7.09-8.17.26-.54-.02-1.33-.08-2.66-4.15,3.11-6.92,6.16-6.9,11-.57.99-1.13,1.99-1.72,2.97-1.15,1.9-2.89,3.53-2.95,6.16,4.05-1.56,5.35-4.38,4.55-9.3Zm33.87,26.68c.74-1.72.97-3.41-.11-5.1-.51-.79-1.79-.97-2.59-.28-.71.6-.67,1.28-.28,2.09.68,1.41,3.12,1.18,3,3.29,5.73,8.42,7.28,10.04,10.75,10.9-1.85-4.82-5-8.44-8.1-12.33-1.04.56-1.88,1.02-2.67,1.43Zm12.35-32.79c1.03-1.5,1.08-2.97-.28-4.26-.35-.33-1.16-.57-1.54-.39-.34.17-.53.96-.52,1.48,0,1.63,1.24,2.35,2.46,3.06.12.58.1,1.25.39,1.73,2.54,4.22,5.05,8.45,7.74,12.57,1.15,1.76,1.92,3.92,4.02,4.97.36-.54.66-1,.96-1.45.86,1.31,1.87,2.54,2.53,3.94.49,1.03.9,2.35.66,3.39-.22.96-1.36,1.71-1.95,2.38.15,2.63,2.81,4.3,1.7,6.92-3.5-.36-3.48-.38-4.37-1.89-1.3-2.22-2.51-4.51-3.99-6.6-2.51-3.56-5.42-6.84-7.74-10.51-2.35-3.73-5.68-6.79-7.12-11.33-1.42.59-2.38,1-3.48,1.46.58,1.1.88,1.83,1.32,2.48,3.06,4.58,6.07,9.2,9.25,13.69,3.67,5.18,7.45,10.29,11.31,15.33.55.72,1.86.87,3.42,1.54.48,1.34,2.85,2.77,1.97,6.02-1.61-.99-2.87-1.76-5.09-3.12.8,1.85,1.03,2.81,1.58,3.52.44.57,1.24,1.07,1.94,1.2,1.62.28,3.24,1.44,5.3.43-.63-1.7-1.25-3.13-1.69-4.61-.27-.91-.43-1.91-.36-2.84.33-4.57-.26-15.71-1.18-20.67-1.19-.82-2.15-2.16-3.89-2.11-.03.73-.05,1.12-.09,1.47-.38-.45-.83-.85-1.13-1.34-3.1-5.12-6.2-10.25-9.24-15.41-.74-1.25-1.66-1.48-2.9-1.05Zm-20.59,81.08c.16.36.31.72.47,1.08-.18-.32-.36-.64-.54-.96.94-1.31,1.48-3.3,3.81-2.3.76,1.4,1.85,2.01,3.41,1.33,1.63-.71,3.23-1.47,4.89-2.18l-.14-.09c1.25,3.18,2.88,6.11,6.07,9.52-.49-2.33-.76-3.41-.9-4.5-.03-.24.42-.54.84-1.04.88.97,1.74,1.92,2.51,2.76,1.95.15,2.87-2.78,4.94-1.21.32.65.63,1.3.98,1.93.06.11.46.17.47.14.12-.26.34-.75.27-.8-.59-.42-1.23-.75-1.86-1.11,3.59-4.59,8.79-7.08,13.41-10.33.21-.15,1.02.08,1.03.18.04.49.09,1.26-.19,1.44-2.93,1.96-5.94,3.8-8.87,5.76-.56.37-.86,1.12-1.6,2.16,1.2.25,1.93.6,2.56.48,1.12-.21,2.18-.72,3.28-1.11.73,1.63.55,4.08,3.42,3.8q.4-3.45-3.58-3.61c1.49-1.82,3.3-3.14,5.67-3.56l-.16-.13c0,.19.04.4,0,.58-.3,1.16-.5,2.25.69,3.11,1.13.81,2.1.66,3.13-.18.55-.45,1.21-.78,2.13-1.35.97,2.15,1.66,4.37,4.37,4.1.03.87.07,1.73.1,2.6.11-.02.23-.04.34-.06-.13-.84-.26-1.68-.39-2.51-.97-1.21-.32-2.75.61-2.77,3.47-.07,5.24-3.12,8.1-4.14l-.15-.07c-.29.93-.57,1.87-.88,2.79-.29.85-.2,1.54.89,1.97,4.61-1.86,7.61-5.96,11.43-9,.2-.16.07-.74.12-1.6-3.51-.12-7.03-.17-10.53.03-.77.05-1.62.95-2.21,1.65-1.4,1.67-5.72,4.81-8.71,6.12.18-4.02,6.63-2.96,6.34-7.81-5.76-1.32-11.53-1.53-17.21-2.27-3.55-.46-3.57-.33-6.73,2.42-.21-.95-.4-1.85-.68-3.1-1.9-.13-3.86-.15-5.8-.41-3.83-.5-6.87.81-9.81,3.27-3.5,2.92-7.22,5.65-11.69,6.94.72-2.5,2.74-3.76,4.73-5.08,1.76-1.17,3.57-2.32,4.78-4-.91-1.52-1.95-1.08-2.69-.57-3.88,2.72-7.71,5.51-11.52,8.34-.58.43-.96,1.14-1.74,2.09,1.18.53,2,.89,2.8,1.28Zm-13.47-51.37c-.08-.74-.04-1.52-.27-2.21-.14-.41-.68-.69-1.08-.98-.05-.04-.42.17-.42.27,0,.48-.11,1.09.14,1.41.44.56,1.1.94,1.67,1.4,2.51,6.77,7.85,11.32,12.75,16.21.69.69,1.81.83,2.39-.99-4.23-4.93-8.58-10.06-13.04-15.08-.31-.35-1.42,0-2.14-.01ZM133.56,21.71c-.15,1.98-.35,3.95-.43,5.93-.25,5.94-.5,11.88-.64,17.83-.02.76-.25,2.07,1.18,2.12.31-.4.67-.67.76-1.02,1.57-6.15,3.12-12.31,4.62-18.48.18-.75.31-1.65.07-2.34-1.16-3.34-1.95-6.94-5.32-8.98-.29-1.74-.52-3.5-.89-5.22-.17-.79-.68-1.37-2.02-.73.26,2.57.4,5.31.88,7.99.19,1.04,1.17,1.93,1.8,2.89Zm-37.69,135.8l.02-.04c-2.55-3.23-5.07-6.47-7.65-9.68-1.31-1.63-2.95-1.83-4.75-.84.26-2.41,1.7-5.1-1.48-6.77-3.6,3.46-3.55,4.14.48,6.29.34.18.76.21,1.14.31-.15,1.93.81,3.32,2.04,4.71,2.45,2.8,4.84,5.67,7.08,8.64,2.96,3.94,5.93,7.88,8.53,12.05,1.95,3.12,4.79,4.46,8.05,5.33.59.16,1.34-.24,2.36-.45-5.13-6.65-9.93-12.87-14.76-19.06-.21-.27-.7-.34-1.06-.5Zm39.51-93.47c-.54,4.51-1.08,9.01-1.61,13.46.87.74,1.59,1.36,2.47,2.11-.98,2.69-1.87,5.44-1.89,8.61.93-.26,1.48-.42,2.04-.58-.19.97-.43,1.92-.55,2.9-.53,4.41-2.5,8.76-.21,13.31.54,1.07.12,2.74-.17,4.06-.85,3.93-.16,7.82.12,11.71.03.45.63.86,1.2,1.58,1.19-1.57,2.22-2.93,3.29-4.34-.7-1.34-1.32-2.53-2-3.83,1.51-2.77,2.03-6.02,4.6-8.16.27.89.55,1.77.99,3.2,1.82-1.75,3.4-2.98,4.6-4.5,1.22-1.54,2.06-3.37,3.1-5.05.97-1.57,1.98-3.11,3.27-5.11.38,3.99-.37,6.89-2.77,9.34-.95.97-1.96,2.22-2.18,3.48-.56,3.13-2.22,5.41-4.34,7.61-1.22,1.27-2.01,2.94-3.05,4.4-1.75,2.47-2.21,5.05-.87,7.83-1.66-.26-3.31-.51-5.3-.82-.25,4.32-.26,8.11,1,12.28,2.25-1.99.55-4.15,1.22-5.81.8-1.99,1.94-3.84,2.94-5.76,4.8-4.97,8.04-11.11,12.28-16.49.23,1.51.47,3.03.67,4.33-2.91,3.77-5.77,7.34-8.46,11.03-.65.89-1.28,2.33-1,3.23.7,2.22.18,3.7-1.36,5.36-1.16,1.26-1.74,3.08-2.49,4.69-.09.2.32.63.51.96,1.41.32,2.47-2.16,4.25-.57-1.14,2-2.28,3.84-3.23,5.77-.43.87-.52,1.93,1.09,2.59,5.32-4.62,9.55-10.28,13.2-16.43-.08,1.55-.32,3.16,1.46,4.02,3.77-1.63,6.53-4.43,9.33-7.49.53,1.2.95,2.14,1.51,3.4,2.31-2.29,4.32-4.2,6.23-6.22.81-.86,1.68-1.84,2.01-2.92.32-1.05.13-2.34-.12-3.45-.13-.57-.88-1.01-1.63-1.81-1.57,2.63-2.86,4.84-4.22,7.01-.39.62-.83,1.42-2.18.69.34-.8.63-1.69,1.08-2.47,1.09-1.89,2.3-3.72,3.4-5.61,1.83-3.17,1.74-3.72-1.17-7.26-2.2,3.39-4.33,6.73-6.54,10.01-.42.63-1.13,1.07-1.71,1.59-.36-1.32-.55-2.79-2.39-2.82,1.57-1.78,3.14-3.56,4.71-5.34,1.31-1.48,2.64-2.93,3.93-4.42,2.18-2.52,1.86-4.98-.29-7.75-3.25,3.55-5.21,7.7-7.89,11.33-1.53,2.06-1.28,4.04-.4,6.15-6.26,4.53-9.94,11.16-14.43,18.66.18-2.18.38-3.11.3-4.02-.08-.93-.44-1.84-.65-2.7,1.19-1.4,2.05-2.83,3.28-3.77,3.56-2.74,5.27-6.9,8.15-10.14,1.56-1.76.83-3.66.46-5.62,1.54-1.86,3.1-3.65,4.56-5.51,1.6-2.03,3.27-4.02,4.61-6.21,1.59-2.58.87-4.92-1.76-6.96-2.25,2-4.2,4.16-4.68,7.32-.11.75-.54,1.51-1.01,2.13-2.35,3.17-4.77,6.29-7.18,9.49-1.43-.11-2.05-.92-2-2.61,1.15-1.32,2.33-2.93,3.77-4.26,1.24-1.15,2.14-2.4,2.12-4.07-.03-2.23,1.31-3.54,2.64-5.08,1.8-2.07,3.35-4.4,4.72-6.79,1.16-2.04.62-3.39-1.81-5.63-1.54,2.35-3.02,4.66-4.56,6.93-.34.5-.51,1.66-1.78.65,1.45-2.58,2.89-5.17,4.37-7.74.39-.68,1-1.25,1.31-1.96.66-1.5.08-3.99-1.2-4.86-1.23-.84-2.22.06-3.19.73,2.77-5.58,2.13-8.24-2.74-11.5l.07.12c1.81-2.2.68-3.87-1.09-5.93-1.12,1.42-2.1,2.57-2.98,3.79-.91,1.26-1.74,2.58-2.6,3.88-.28-1.66.37-3.06,1.07-4.52,1.02-2.14,1.83-4.38,2.6-6.62.22-.63-.01-1.41-.04-2.11-2.29-.05-3.11,1.25-3.91,2.67-1.64,2.89-2.3,6.33-4.91,8.66l.17.12c.19-3.45,2.18-6.23,3.43-9.28.59-1.44,1.27-2.85,1.73-4.33.32-1.03-.17-1.89-1.23-2.39l.17.1c-1.4-1.32-.07-3.9-2.03-5.08-.46.48-.84.7-.96,1.03-2.02,5.34-3.42,10.92-6.47,15.86-.68,1.1-.61,2.67-.89,4.02l.12-.17c-.74.31-1.48.62-2.23.93.06-.37.21-.77.14-1.12-.03-.14-.52-.2-.8-.3,0,.19-.09.46,0,.55.26.25.59.43.89.64Zm71.17,90.91c.13-1.49,1.06-2.44,2.08-3.46,1.53-1.53,3.14-3.12,4.16-4.99,1.71-3.15,3.83-5.96,5.93-8.82.92-1.25,1.65-2.64,2.63-4.22-2.56-2.76-2.64-6.98-6.47-9.27-1.16,1.02-2.34,2.02-3.47,3.07-.86.81-1.51,2.18-2.49,2.46-3.23.91-5.56,2.76-7.56,5.38-.63.82-2.08,1-3.15,1.5-3.57,1.69-6.08,4.41-7.53,8.06-.67,1.68-.67,3.36,1.19,4.96.95-1.14,1.93-1.9,2.37-2.9,1.71-3.84,5.83-5.06,8.42-7.93.35-.39,1.06-.66,1.59-.65,3.22.06,4.95-2.06,6.68-4.29.84-1.09,1.7-2.24,2.8-3.02,1.13-.79,2.25-.37,2.92,1.46-1.17,1.06-2.56,2.14-3.72,3.43-2.1,2.34-4.43,4.59-5.98,7.27-1.34,2.32-1.72,5.2-2.62,8.11.7,1.17,1.51,2.51,2.27,3.84-.33.03-.67.05-1,.08.32-.02.64-.04.96-.06Zm-48.35,59.45c2.27-1.04,2.75-3.56,5.25-4.04,1.71-.33,3.04-2.34,4.72-3.28,1.73-.97,3.69-1.55,6.03-2.5-.44,1.95-.86,3.26-.99,4.59-.11,1.15-.02,2.43,1.55,2.68,2.37-.88,2.51-3.41,3.81-5.13.57-.09,1.15-.3,1.7-.24,1.56.19,1.88-.96,2.55-1.95.5-.73,1.41-1.3,2.26-1.63,1.21-.47,2.19-.93,1.81-2.8-3.47.09-7.33-1.54-9.68,2.73-4.83-2.69-5.45-2.56-9.42.74-2.42,2.01-5,3.84-7.61,5.59-1.9,1.27-2.47,2.82-1.98,5.25Zm8.72-80.7c-1.8.19-2.95,1.24-3.48,2.8-1.12,3.31-3.34,5.79-5.6,8.33-1.71,1.91-3.71,4.01-4.34,6.35-1.67,6.17-6.97,10.16-8.97,16.05-.22.66-1.12,1.08-1.66,1.65-.82.86-1.71,1.69-2.37,2.67-.58.86-.75,1.85.92,2.25,3.23-3.89,6.41-7.93,9.83-11.75,2.84-3.17,5.17-6.48,5.63-10.87.09-.9.7-1.84,1.28-2.59,1.09-1.42,2.2-2.87,3.53-4.05,3.27-2.91,4.78-6.6,5.25-10.85Zm-71.84,43.43c-.01-.91.14-1.42-.04-1.64-4.18-5.02-8.39-10.02-12.61-15.01-2.41-2.84-5.38-5.25-6.49-9.05-.19-.65-.97-1.12-1.77-2-.95,1.32-1.68,2.34-2.4,3.34,1.82,2.01,3.43,3.74,4.98,5.52,3.89,4.48,7.67,9.05,11.65,13.45,1.83,2.02,3.45,4.4,6.69,5.39Zm-5.46.1c-5.86-9.13-13.63-15.17-19.46-22.79-1.55.55-1.74,1.5-1.03,2.41,4.63,5.95,9.3,11.88,14.03,17.76.98,1.22,2.18,2.36,3.48,3.21.5.32,1.59-.28,2.98-.58Zm51.33-21.24c.11-.78,0-1.46.29-1.83,1.39-1.81,1.89-3.36-.32-5.03-.6-.45-.63-1.71-.81-2.62-.26-1.3-.42-2.61-.67-4.24-.77.5-1.5.71-1.6,1.09-.3,1.12-.52,2.31-.47,3.46.25,5.12.58,10.25.94,15.36.08,1.1.42,2.17.78,3.96,1.28-2.07,2.13-3.55,3.09-4.97,1.03-1.52,3.16-2.37,3.02-4.96-1.49-.08-2.79-.14-4.27-.22Zm-74.56,9.59q-2.23.64-3.47,2.92c2.39,3.74,5.33,7.19,8.39,10.56,1.84,2.03,3.94,2.47,6.24.82-.02-.54.14-1.06-.06-1.3-3.69-4.38-7.43-8.72-11.1-13.01Zm30.72-33.63c-.37,1.29-.68,1.79-.55,2.01,5.36,8.87,10.22,18.07,16.91,26.08.11.13.61-.08,1.31-.18-.51-1.15-.9-2.22-1.43-3.21-1.5-2.78-3.04-5.54-4.59-8.29-1.64-2.91-4.39-4.96-5.97-7.98-1.42-2.73-3.44-5.15-5.68-8.42Zm13.03,39.07c.18-2.74-1.16-4.08-2.2-5.45-4.19-5.51-8.53-10.9-12.76-16.38-1.45-1.88-2.66-3.95-4.17-5.77-.8-.96-1.67-2.25-3.71-1.69,3.33,5.56,7.98,9.89,11.44,15.12,2.96,4.47,6.35,8.65,9.6,12.92.33.44.94.66,1.81,1.25Zm119.37-45.24c.35-.16.71-.32,1.06-.49-.35-1.07-.54-2.22-1.06-3.19-1.69-3.13-3.58-6.15-5.24-9.29-2.74-5.19-6.58-9.8-8.1-15.63-.16-.62-1.01-1.06-2.1-2.13.29,1.88.22,3.07.67,4.02.92,1.94,2.41,3.65,3.15,5.64,2.5,6.71,6.31,12.71,9.84,18.86.47.81,1.18,1.48,1.78,2.21Zm-26.29,36.64c-2.17.61-3.33,1.3-4.38,1.15-1.94-.28-3.04.65-3.94,2-.98,1.48-1.92,3.02-2.64,4.64-.38.85-.37,1.93-.3,2.88.04.48.57,1.24.97,1.3.68.11,1.66,0,2.1-.44,1.08-1.1,1.68-2.87,2.92-3.58,2.91-1.66,3.68-4.46,5.26-7.96Zm-40.34,40.46c-3.48-.41-3.49-.46-7.09,1-.54,1.78-1.15,3.53-3.22,4.44-1.19.52-2.15,1.64-3.08,2.63-.29.31-.33,1.21-.09,1.57.22.34,1.12.6,1.48.42,4.57-2.27,8.45-5.48,12.07-9.02.08-.08-.02-.36-.07-1.04Zm-26.75-146.79c1.62-1.55,2.25-2.03,2.71-2.64.59-.78,1.16-1.62,1.51-2.52,1.35-3.49,2.66-7,3.88-10.53.45-1.3.53-2.69-.74-3.81-1.87.75-2.56,2.61-2.94,4.16-1.16,4.71-3.74,9.02-4.42,15.35Zm10.04,97.44c4.63-2.42,7.74-5.89,9.38-10.47.14-.39-.2-1.22-.57-1.47-.36-.24-1.32-.22-1.54.06-1.96,2.47-3.92,4.96-5.64,7.6-.81,1.25-1.1,2.84-1.63,4.28Zm-76.5,26.93c-.95-1.23-1.74-2.32-2.61-3.36-1.87-2.25-3.72-4.52-5.72-6.65-.31-.33-1.44-.07-2.07.2-.23.1-.32,1.16-.09,1.55,2.09,3.59,4.86,6.6,8.08,9.2.25.2.81.26,1.1.13.44-.2.78-.63,1.29-1.08Zm-12.23-6.58c-2.36,2.47-2.63,2.92-1.82,3.77,1.73,1.83,3.48,3.68,5.47,5.2,1.19.91,2.62.62,3.18-1.25-2.19-2.48-4.37-4.95-6.82-7.72Zm19.92-28.57c-.61.98-1.21,1.56-1.3,2.21-.09.69.08,1.73.55,2.11,2.17,1.75,3.72,3.96,5.16,6.29.1.16.27.33.43.37.54.12,1.38.44,1.57.22.44-.5.65-1.27.78-1.96.06-.31-.2-.76-.43-1.05-2.07-2.54-4.17-5.06-6.76-8.19Zm120.03,9.01c.61-.09,1.21-.02,1.34-.23,2.01-3.16,3.97-6.35,5.88-9.56.09-.15-.32-.65-.56-.94-.09-.11-.41-.18-.54-.11-3.93,2.1-5.6,5.86-7.03,9.75-.09.25.66.8.91,1.08Zm20.46-5.32c4,.75,6.73-.55,8.97-2.93.38-.4.28-1.47.07-2.13-.11-.34-1.02-.75-1.42-.63-2.63.76-5.24,1.64-7.12,3.8-.33.38-.3,1.06-.51,1.89Zm-105.05-19.14c.18-1.31.51-2,.29-2.35-1.76-2.83-2.7-5.97-3.76-9.08-.27-.8-1.11-1.58-1.89-1.97-.7-.36-1.64,1.56-1.28,2.8.21.74.49,1.49.91,2.13,1.68,2.57,3.43,5.09,5.73,8.47Zm58.55,21.73c-.6.72-1.19,1.45-1.81,2.15-.65.74-1.31,1.46-1.98,2.17-.54.57-1.12,1.09-1.67,1.65-.69.7-1.44,1.35-2.01,2.13-.51.69-.81,1.53-1.45,2.8,5.74-2.77,8.49-5.83,8.93-10.91Zm-128.55-10.65c4.42-2.61,4.93-6.27,6.58-9.1-1.15-1.26-2.21-1.09-2.73-.18-1.46,2.53-3,5.07-3.85,9.29Zm7.68,47.21c.46-.59,1.1-1.03,1.11-1.49.06-2.27-1.96-4.67-4.18-4.85-.43-.04-1.38.99-1.35,1.47.18,2.7,1.92,4.09,4.41,4.87Zm35.66,13.45c-1.76-1.23-3.01-.54-4.12.21-1.78,1.18-3.5,2.47-5.14,3.83-.44.36-.51,1.17-1,2.42,4.55-1.36,7.37-3.8,10.27-6.46Zm85.29,7.69c-2.18-.32-3.17.49-4.2,3.39-.59,1.65-.32,2.21,1.85,3.6,1.49-2.1,2.64-4.28,2.36-6.99Zm-32.55-168.46c.95-2.14,1.96-4.26,2.82-6.43.28-.69.24-1.54.2-2.32-.01-.33-.38-.91-.58-.91-.49,0-1.28.15-1.42.46-1.27,2.89-1.88,5.93-1.02,9.19Zm-49.28,89.13c-1.73,2.33-3.52,4.62-5.15,7.03-.55.81.04,1.43,1.43,1.53.88-2.94,4.66-4.29,3.72-8.56Zm17.07-.11c1.5-2.57-1.14-4.1-1.42-6.31-.08-.68-1.21-1.23-2.08-2.04-1.87,4.34,2.15,5.71,3.5,8.34Zm-29.77,71.92c-4.53.8-6.72,2.47-9.06,6.49,3.51-1.45,6.47-3.64,9.06-6.49Zm-15.02,15.83c-.6-2.91-1.93-3.93-3.66-4.41-.62-.17-1.38.22-2.08.35.22.66.25,1.65.69,1.9,1.31.76,2.79,1.22,5.05,2.15Zm101.42-69.68c2.39-.66,3.53-2.13,4.48-3.75.19-.33-.14-1.02-.37-1.48-.05-.11-.82-.06-1.01.15-1.28,1.34-2.71,2.62-3.1,5.09Zm-34.47,74.93c-1.13-2.41-1.7-3.81-2.44-5.13-.24-.43-.88-.72-1.39-.88-.21-.07-.8.34-.84.6-.1.53-.16,1.32.15,1.62,1.11,1.09,2.37,2.01,4.53,3.77Zm-25.28-2.94c.94,1.67,1.72,3.12,2.57,4.53.18.29.58.55.92.62.33.07.8,0,1.05-.2.25-.2.49-.7.41-.97-.39-1.36-2.43-3.01-4.95-3.99Zm75.94-4.5c-2.88,1.03-3.43,2.94-1.75,5.61.6-1.92,1.14-3.65,1.75-5.61Zm-2.37-86.85c-2.73.05-2.86.23-2.86,3.87,2.15-.46,2.72-1.98,2.86-3.87Zm-13.05,86.99c-.26-.24-.5-.65-.79-.69-.32-.04-.77.17-1,.43-.84.94-1.19,2.02-.48,3.18.16.27.7.56.96.48,1.39-.44,1.27-1.73,1.43-2.83.03-.18-.07-.38-.12-.57Zm-45.51-81.68c.55-4.14.53-4.14-2.34-4.7-.05,1.8.03,3.41,2.34,4.7Zm77.27,71.05c1.6-1.24,1.95-2.76,2.05-4.67-2.69,1.28-2.67,1.3-2.05,4.67ZM59.58,121.18c-1.86,1.38-2.95,2.07-3.89,2.92-.61.55-.82,1.31.21,2.08,1.67-.82,2.87-2.04,3.68-5Zm113.08,95.63c-.56,1.62-.93,2.48-1.13,3.37-.06.25.28.71.56.87.28.16.79.21,1.05.06,1.28-.75,1.26-1.75-.47-4.31Zm-28.53.07c.35.25.71.49,1.06.74.6-.63,1.32-1.19,1.74-1.92.19-.32-.07-1.2-.41-1.44-.31-.22-1.26-.1-1.45.19-.46.72-.65,1.61-.95,2.44Zm40.12-4.47c-2.28,1.05-2.66,2.77-2.04,5.66.74-1.7,1.17-2.56,1.5-3.46.25-.71.37-1.47.55-2.2Zm-116.86,6.29q-1.73-3.03-3.65-3.5c.49,1.77,1.65,2.73,3.65,3.5Zm123.68-9.73c-1.05-.36-1.64-.78-2.02-.63-.43.16-.91.83-.9,1.27,0,.35.88,1.05,1.08.96.58-.26,1.02-.84,1.84-1.6Zm21.91-115.42q-.68-4.21-2.73-5.2c.88,1.68,1.53,2.92,2.73,5.2Zm8.13,72.14c2.07.99,2.85-.15,3.5-1.41.13-.25.02-.81-.18-1.01-.22-.21-.88-.35-1.03-.2-.79.78-1.47,1.66-2.29,2.61Zm-49.64-20.67c-.16-.06-.33-.18-.48-.16-1.18.14-2.21,1.38-1.92,2.31.05.15.25.33.41.37.88.23,2.05-.87,2.17-2.03.02-.15-.11-.32-.18-.48Zm59.38-1.5c-.52-.88-.09-2.55-1.88-2.39-.54,1.51.63,2.01,1.88,2.39Zm-20.03,59.51c-.23-.21-.47-.41-.7-.62-.56.57-1.12,1.15-1.67,1.72.15.16.3.32.44.48.65-.53,1.29-1.06,1.93-1.58Zm-130.91,20.37c.2-.72.45-1.32.36-1.37-.6-.37-1.26-.63-1.91-.92-.11.35-.4.91-.28,1.02.51.47,1.14.81,1.83,1.27Zm113.75-41.58c.44-.74.81-1.17.96-1.67.07-.23-.26-.59-.41-.89-.28.19-.78.37-.8.59-.05.54.13,1.09.26,1.97Zm-150.29-30.42c.36.25.71.5,1.07.75.53-.99,1.07-1.97,1.6-2.96-.25-.15-.49-.31-.74-.46-.64.89-1.29,1.78-1.93,2.67Zm97.96,34.94c-.7.29-1.27.36-1.58.69-.35.38-.47.99-.74,1.6q1.51-.51,2.31-2.29Zm76.61-15.41c-.31.94-.58,1.75-.85,2.56.34.08.91.32.99.21.42-.59.75-1.25,1.01-1.92.03-.08-.5-.38-1.15-.85Zm16.39-13.07c-.15-.09-.37-.29-.45-.25-.6.35-1.21.69-1.71,1.15-.13.12.11.63.17.97.6-.3,1.24-.55,1.78-.94.19-.14.15-.61.21-.93Zm-112.78,62.1c-.53.43-.98.69-.95.81.14.5.38.99.69,1.39.07.1.59-.16.91-.25-.2-.59-.4-1.19-.65-1.95Zm14.99-3.36c-.56-.3-1.05-.77-1.42-.69-.34.07-.74.73-.76,1.15-.05.84.93,1.5,1.42,1.04.34-.32.46-.88.76-1.51Zm92.37-83.75c-.25.62-.56,1.02-.46,1.21.23.45.63.84,1.03,1.17.06.05.72-.47.71-.49-.36-.6-.77-1.16-1.28-1.89Zm-135.22-6.49c-.53-.11-.98-.34-1.14-.21-.26.21-.45.66-.43.99.01.21.47.39.72.58.27-.43.54-.86.84-1.36Zm142.85,11.64c.47.33.93.65,1.38.96.07-.37.28-.78.17-1.09-.1-.3-.49-.58-.82-.68-.13-.04-.41.44-.73.81Zm-97.03,45.52c0-.63.04-1.14-.02-1.65,0-.05-.76-.15-.87,0-.2.26-.31.75-.19,1.03.1.25.57.34,1.08.62Zm26.97,40.66c.44-.27.99-.49.98-.63-.06-.47-.33-.91-.52-1.36-.38.24-1.05.45-1.07.71-.03.4.38.84.61,1.28Zm-57.45-90.04c.42-.38.95-.73.91-.82-.19-.43-.55-.79-.85-1.18-.25.22-.73.48-.7.65.09.46.39.87.64,1.35Zm-9.6-16.65c.26-.27.52-.53.77-.8-.25-.16-.51-.31-.76-.47-.15.32-.32.64-.43.98-.02.05.27.19.41.29Zm55.57,98.39c.12-.5.22-.97.33-1.44-.32.02-.74-.07-.93.1-.23.2-.33.62-.34.96,0,.09.49.21.93.38Zm-40.69,1.69c-.54.45-1,.76-.97.82.23.45.51.9.89,1.23.11.1.55-.15.84-.24-.24-.57-.47-1.13-.76-1.81Zm-24.8,1.43c-.16.2-.31.4-.47.61.34.39.66.8,1.02,1.17.11.11.34.12.51.17.07-.32.3-.76.17-.92-.33-.41-.82-.69-1.24-1.03Zm112.03-17.26c.29-.52.63-.95.74-1.43.05-.2-.39-.52-.6-.78-.3.41-.7.78-.86,1.24-.06.18.39.54.72.98Zm-128.3,18.45c-.19-.31-.31-.72-.58-.89-.17-.11-.57.13-.86.22.18.32.3.73.57.91.17.11.57-.15.87-.24Zm-24.64-19.86c-.09.59-.29,1-.16,1.21.17.29.6.42.92.62.18-.29.57-.76.5-.83-.32-.37-.76-.63-1.26-1Zm-24.42,3.88c-.2-.24-.37-.63-.6-.67-.3-.06-.65.16-.97.26.22.23.4.59.66.66.27.07.61-.15.92-.24Zm21.83-31.18c-.23-.23-.45-.65-.68-.65-.28,0-.56.35-.84.55.32.31.64.63.95.94.19-.28.37-.56.56-.84Zm153.32,38.44c-.27-.42-.46-.7-.65-.99-.43.32-.96.57-1.23.99-.09.14.49.71.77,1.09.38-.37.76-.74,1.12-1.09Zm-73.83,13.79c-.2-.29-.35-.73-.63-.84-.21-.08-.59.24-.89.39.2.3.35.74.62.85.21.08.59-.25.9-.4Zm70.77-8.04c-.16.24-.31.49-.47.73.14.07.38.23.4.2.19-.22.33-.47.49-.72-.14-.07-.28-.14-.42-.21Zm-73.96-124.25c.07-.29.15-.58.22-.88-.15-.03-.29-.06-.44-.09-.06.3-.12.59-.18.89.13.03.27.05.4.08Zm-5.38,12.23c-.06-.32-.12-.65-.21-.97,0-.02-.27.03-.42.05.06.33.12.66.2.99,0,.02.28-.04.43-.06Zm-1.68,3.39c-.23-.28-.46-.55-.69-.83-.15.31-.45.65-.41.93.05.31.42.56.65.84.15-.31.3-.63.45-.94Zm-75.27,39.93c.3-.21.53-.37.75-.53-.18-.03-.4-.13-.52-.06-.12.07-.13.32-.23.58Zm136.34-1.43c-.11-.14-.22-.29-.33-.43-.25.26-.51.5-.73.78-.02.02.21.25.33.38.25-.24.49-.48.74-.72Zm37.59,22.47c-.16.32-.31.63-.46.95.29.07.59.13.88.2.04-.35.09-.69.08-1.04,0-.04-.32-.08-.5-.11Zm-137.82,49c0-.18,0-.36,0-.53-.23.03-.45.06-.68.09.09.16.14.36.27.47.08.06.28-.02.42-.03Zm35.8,2.31c-.49-.21-.91-.43-1.35-.57-.07-.02-.37.35-.35.37.31.38.65.73.98,1.08.19-.23.38-.46.72-.88Zm37.45-.69c-.25-.2-.49-.4-.74-.59-.13.31-.46.75-.36.9.2.3.64.45.98.67.04-.32.08-.65.12-.97Zm-4.28,1.32c-.12-.12-.24-.24-.36-.36-.2.22-.43.44-.59.69-.03.04.21.26.33.39.21-.24.42-.48.63-.72Zm-20.11-139.43h.4s-.21-.42-.21-.42l-.19.42Zm-10.17,50.15c-.08.16-.23.33-.21.48.01.14.2.27.32.4.08-.15.23-.32.21-.46-.02-.15-.21-.29-.32-.43Zm64.59-7.51c-.13-.13-.26-.27-.39-.4-.11.15-.35.4-.32.43.17.19.39.34.6.5.04-.18.08-.35.11-.53Zm44.18,5.95c-.31-.1-.61-.23-.93-.27-.07,0-.18.29-.27.45.32.1.63.23.95.28.06,0,.16-.3.25-.46Zm3.77,6.36c-.19-.3-.38-.6-.56-.89-.13.1-.38.2-.38.29.01.32.12.64.18.96.25-.12.51-.24.76-.36Zm13.64,6.7c-.03.14-.1.3-.07.43.02.06.23.08.36.11.03-.14.1-.3.06-.43-.02-.06-.23-.08-.35-.11Zm14.38,13.63c0,.28.02.57.03.85.08-.14.22-.28.22-.42,0-.15-.15-.29-.24-.43Zm-48.95,13.88l.28.45.14-.51-.43.07Zm10.11,26.35c-.03.17-.09.34-.06.5,0,.05.27.05.41.08.02-.16.09-.34.05-.49-.01-.06-.26-.06-.4-.08Zm8.64-.13c.13-.06.25-.11.38-.17-.07-.13-.11-.31-.22-.37-.08-.04-.24.09-.37.15.07.13.14.26.21.39Zm-137.62,24.61l-.31.03.19.34.11-.37Z"/>
      <path class="cls-1" d="m190.77,96.41c-.55,1.69-1.11,3.37-1.63,5.06-.29.94-.18,2.2-.77,2.82-3.87,4.1-3.23,9.04-2.86,13.96.01.18-.11.36-.32.99-.49-3.16-1.16-5.91-1.28-8.69-.2-4.74.09-9.49-.1-14.23-.19-4.77-.03-9.47.94-14.15-1.5-5.04.02-10.25-.89-15.33-.17-.93,0-1.93,0-2.86,1.71-.59,1.75.55,1.93,1.49.24,1.25-1.05,2.71.82,4,1.19-1.83,2.09-3.74,2.79-5.77.78-2.27,1.79-4.38,3.95-5.7-1.85,4.26-3.74,8.51-5.52,12.8-.59,1.43-1.11,2.93-1.33,4.45-.32,2.2.04,4.3,2.14,5.66-.21,1.93-.92,3.98-.49,5.76.49,2,.72,3.81.21,5.77-.58,2.24.87,3.22,2.58,4.01l-.18-.03Zm-4.35-.15q-1.67,2.51-.13,4.5c1.12-1.48,1.73-2.89.13-4.5Z"/>
      <path class="cls-1" d="m32.07,142.16c.59-.9,1.19-1.83,1.91-2.95.59.58,1.14.9,1.34,1.36.22.5.33,1.24.12,1.7-1.4,3.01-2.9,5.97-4.88,9.98-.09-2.31-.14-3.52-.21-5.34-4.66,2.8-5.41,7.63-8.51,12.09.19-2.19.3-3.38.42-4.73-2.42-.15-2.09,3-4.44,3.01.06-.74.02-1.48.2-2.16.36-1.32,1.26-2.63,1.18-3.89-.18-2.79,1.6-4.29,3.23-5.95.17-.17.73.04,1.39.1-.35,1.29-.69,2.54-1.04,3.82.6.05,1.08.24,1.33.07,1.17-.75,2.01-1.63,2.35-3.19.87-3.97,1.24-4.11,5.61-3.92Z"/>
      <path class="cls-1" d="m200.89,75.32c-.21,1.31-.1,2.79-.68,3.91-2.3,4.5-4.8,8.9-7.28,13.31-.26.46-.87.73-1.32,1.09l.15.16c.06-.58-.04-1.23.2-1.71,2.68-5.36,5.4-10.69,8.15-16.01.15-.29.62-.42.94-.63l-.17-.13Z"/>
      <path class="cls-1" d="m195.97,98.87c.11,2.16-1.17,3.64-2.65,5.77-.42-3.08,1.48-4.21,2.82-5.63,0,0-.16-.13-.16-.13Z"/>
      <path class="cls-1" d="m47.45,190.23c-1.28.65-2.55,1.29-3.92,1.99q.24-1.68,4-1.98s-.08,0-.08,0Z"/>
      <path class="cls-1" d="m38.67,194.35c-.33-.15-.49-.23-.64-.3.37-.34.73-.69,1.12-1,.06-.04.29.14.44.22-.32.37-.63.75-.91,1.08Z"/>
      <path class="cls-1" d="m182.27,149.96c-.14-.04-.35-.05-.4-.14-.05-.09.06-.27.1-.41.14.04.35.04.4.13.05.1-.06.27-.1.41Z"/>
      <path class="cls-1" d="m185.91,128.21c-.13.11-.25.22-.37.32-.11-.13-.22-.27-.33-.4l.62-.43c.03.17.05.35.08.52Z"/>
      <polygon class="cls-1" points="158.33 176.01 158.08 176.35 157.98 176.02 158.33 176.01"/>
      <polygon class="cls-1" points="187.81 190.72 187.56 190.51 187.98 190.44 187.81 190.72"/>
      <path class="cls-1" d="m112.61,234.69c-.7.34-1.41.67-2.11,1.01-.05-.16-.11-.31-.16-.47.74-.18,1.49-.36,2.24-.54.01,0,.03,0,.03,0Z"/>
      <path class="cls-1" d="m191.61,93.64c-.28.92-.56,1.85-.84,2.77,0,0,.18.03.18.03.27-.88.54-1.76.81-2.65l-.15-.16Z"/>
      <path class="cls-1" d="m225.74,91.51c-.11-.26-.2-.4-.2-.54,0-.05.21-.11.32-.17-.03.2-.07.39-.12.7Z"/>
      <path class="cls-1" d="m45.31,221.77l-.82-.54c.23.23.46.46.69.68.01-.01.12-.14.12-.14Z"/>
      <path class="cls-1" d="m48.58,221.8c-1.08-.02-2.17-.03-3.26-.04,0,.01-.12.14-.13.16,1.08.02,2.16.02,3.26.01.02-.02.13-.13.13-.13Z"/>
      <path class="cls-1" d="m244.39,154.64c1.55-.17,2.7.23,2.88,2.01l.09-.15c-.3.92-.6,1.85-.9,2.77l.15-.11c-1.74-1.11-2.7-2.54-1.93-4.69,0,0-.3.16-.3.16Z"/>
      <path class="cls-1" d="m196.7,62.64c-1.58,6.66-4.57,12.7-8.23,18.44.49-1.88.78-3.84,1.51-5.61,1.66-3.99,3.51-7.89,5.36-11.79.22-.46.89-.69,1.36-1.03Z"/>
      <path class="cls-1" d="m78.62,121.95c.59,3.2-.73,6-1.59,9.32-2.72-1.71-1.17-3.86-1.38-5.54-.26-2.08,1.3-3.1,3.12-3.68l-.15-.1Z"/>
      <path class="cls-1" d="m116.54,71.72c.39.33.79.49.87.76.22.68-.62,1.54-1.24,1.28-.23-.1-.49-.6-.42-.81.15-.44.51-.82.79-1.23Z"/>
      <path class="cls-1" d="m121.28,210.99c.6-2.39,2.38-3.39,4.37-4.04,1.14.78.78,1.52.23,2.08-1.29,1.3-2.8,2.18-4.76,1.84,0,0,.15.12.15.12Z"/>
      <path class="cls-1" d="m98.26,207.7c.19-2.73,1.57-4.11,4.79-4.17-.93,2.77-3.13,3.18-4.94,4.06l.14.11Z"/>
      <path class="cls-1" d="m140.19,210.22c1.24-1.19,2.49-2.38,3.67-3.51,1.76.62,1.24,1.51.57,2.26-1.16,1.3-2.76,1.3-4.37,1.19-.02-.01.13.06.13.06Z"/>
      <path class="cls-1" d="m98.12,207.59c-1.27,1.84-2.81,3.1-5.26,2.5-.02-.01.12.08.1.06,1.55-1.26,2.76-3.28,5.3-2.46,0,0-.13-.11-.13-.11Z"/>
      <path class="cls-1" d="m154.77,81.19c-.09.76.03,1.65-.31,2.27-2.03,3.72-4.17,7.39-6.28,11.07,1.2-5.44,3.48-10.07,6.59-13.34Z"/>
      <path class="cls-1" d="m155.13,63.54c.09.58.38,1.23.22,1.74-1.34,4.25-3.52,8.05-6.32,11.5,1.21-4.78,4.23-8.67,6.19-13.1-.02-.03-.09-.15-.09-.15Z"/>
      <path class="cls-1" d="m148.31,94.28c-.64,2.69-1.39,5.31-3.98,6.87.71-2.65,1.72-5.12,3.98-6.87Z"/>
      <path class="cls-1" d="m140.27,95.85q.28-4.09,2.91-6.64c-.55,2.74-2.03,4.53-3.09,6.51l.18.13Z"/>
      <path class="cls-1" d="m140.09,95.72c-.56,1.22-1.13,2.45-2.03,4.41q.28-3.22,2.21-4.28s-.18-.13-.18-.13Z"/>
      <path class="cls-1" d="m157.45,75.35c-.23,2.37-.84,4.56-2.83,6.1-.12-2.53,1.99-4.02,2.83-6.1Z"/>
      <path class="cls-1" d="m140.08,81.25c.4-2.35,1.49-4.28,3.55-5.57-1.18,1.86-2.37,3.71-3.55,5.57Z"/>
      <path class="cls-1" d="m145.11,70.75c1.22-1.84,1.39-4.34,3.57-5.56-.36,2.39-1.36,4.36-3.57,5.56Z"/>
      <path class="cls-1" d="m144.48,100.91c0,1.69-.5,3.15-1.95,4.16-.01-1.7.55-3.13,1.95-4.16Z"/>
      <path class="cls-1" d="m146.3,83.79c-.26.42-.54.87-.81,1.32-.24-.18-.48-.36-.72-.54.33-.42.65-.84.98-1.27.14.12.28.24.56.48Z"/>
      <path class="cls-1" d="m138.27,85.15c.07-1.65.67-3.05,1.94-4.15-.65,1.38-1.29,2.76-1.94,4.15Z"/>
      <path class="cls-1" d="m136.25,87.87c.05-1.47,1.04-2.25,2.16-2.94-.72.98-1.44,1.96-2.16,2.94Z"/>
      <path class="cls-1" d="m144.04,75.18c.22-1.31.45-2.63.67-3.94-.22,1.31-.45,2.63-.67,3.94Z"/>
      <path class="cls-1" d="m164.32,119.65c-1.44,4.42-3.55,8.38-7.58,11.02,1.78-4.18,3.62-8.33,7.58-11.02Z"/>
      <path class="cls-1" d="m143.33,63.46c.29,1.68-.44,2.96-1.59,4.16q-.04-2.05,1.76-4.03s-.17-.13-.17-.13Z"/>
      <path class="cls-1" d="m143.69,52.3c.51-1.07,1.02-2.14,1.52-3.22.47-1,1.26-1.46,2.38-1.4.01,0-.16-.09-.14-.08-.43.89-.97,1.73-1.3,2.65-.45,1.28-1.22,1.99-2.6,1.97l.14.08Z"/>
      <path class="cls-1" d="m137.25,63.51c.35.02.72-.03,1.03.08.14.05.16.43.24.66-.16-.04-.37-.03-.47-.12-.25-.24-.45-.53-.67-.79,0,0-.12.17-.12.17Z"/>
      <path class="cls-1" d="m137.2,67.97c-.06.17-.12.34-.18.51-.22-.14-.44-.28-.66-.42.14-.11.27-.29.42-.32.12-.02.28.14.41.23Z"/>
      <path class="cls-1" d="m143.54,52.22c.22.28.54.53.63.84.05.19-.25.48-.39.72-.09-.13-.25-.27-.24-.4.03-.36.13-.7.17-1.07-.03-.02-.17-.09-.17-.09Z"/>
      <polygon class="cls-1" points="137.65 75.54 137.22 75.61 137.37 75.11 137.65 75.54"/>
      <path class="cls-1" d="m95.86,157.51c-.44,0-.87.01-1.31.02.44-.02.88-.03,1.33-.05,0,0-.02.03-.02.03Z"/>
      <path class="cls-1" d="m133.4,21.81c-.15-1.77-.5-3.57.53-5.22-.2,1.74.69,3.59-.53,5.22Z"/>
    </g>
  </g>
</svg>