<?xml version="1.0" encoding="utf-8"?>
<!-- Generator: Adobe Illustrator 27.4.0, icons Export Plug-In . icons Version: 6.00 Build 0)  -->
<svg version="1.1" id="Calque_2_00000016035625788819310020000007255448312331385478_"
	 xmlns="http://www.w3.org/2000/svg" xmlns:xlink="http://www.w3.org/1999/xlink" x="0px" y="0px" viewBox="0 0 272.6 208.1"
	 style="enable-background:new 0 0 272.6 208.1;" xml:space="preserve">
<style type="text/css">
	.st0{fill:#646464;}
	.st1{fill:#1E1E1E;}
	.st2{fill:#7E7E7E;}
	.st3{fill:#4B4B4B;}
	.st4{fill:#313131;}
	.st5{fill:#325C76;}
	.st6{fill:#0C4861;}
	.st7{fill:#3F3F3F;}
	.st8{fill:#757575;}
	.st9{fill:#4F4F4F;}
	.st10{fill:#0F0F0F;}
</style>
<g id="Layer_2">
	<polygon class="st0" points="187.9,129.6 132,129.6 134,110.6 185.8,110.6 187.9,129.6 	"/>
	<polygon class="st1" points="189.9,148.6 130,148.6 132,129.6 187.9,129.6 189.9,148.6 	"/>
	<polygon class="st0" points="191.9,167.7 160,167.7 159.8,167.7 127.9,167.7 130,148.6 189.9,148.6 191.9,167.7 	"/>
	<polygon class="st1" points="183.8,91.5 185.8,110.6 134,110.6 136,91.5 183.8,91.5 	"/>
	<polygon class="st1" points="140.1,53.4 159.8,53.4 160,53.4 179.8,53.4 181.8,72.5 138,72.5 140.1,53.4 	"/>
	<polygon class="st0" points="138,72.5 181.8,72.5 183.8,91.5 136,91.5 138,72.5 	"/>
	<path class="st0" d="M134.8,51.7c0,0.9,0.7,1.6,1.6,1.6h47c0.9,0,1.6-0.7,1.6-1.6v-7.5c0-0.9-0.7-1.6-1.6-1.6h-47
		c-0.9,0-1.6,0.7-1.6,1.6V51.7L134.8,51.7z"/>
	<polygon class="st2" points="170.1,110.6 185.8,110.6 187.9,129.6 170.1,129.6 170.1,110.6 	"/>
	<polygon class="st3" points="170.1,129.6 187.9,129.6 189.9,148.6 170.1,148.6 170.1,129.6 	"/>
	<polygon class="st2" points="170.1,148.6 189.9,148.6 191.9,167.7 170.1,167.7 170.1,148.6 	"/>
	<polygon class="st3" points="170.1,91.5 183.8,91.5 185.8,110.6 170.1,110.6 170.1,91.5 	"/>
	<polygon class="st3" points="170.1,53.4 179.8,53.4 181.8,72.5 170.1,72.5 170.1,53.4 	"/>
	<polygon class="st2" points="170.1,72.5 181.8,72.5 183.8,91.5 170.1,91.5 170.1,72.5 	"/>
	<path class="st2" d="M170.1,42.6h13.3c0.9,0,1.6,0.7,1.6,1.6v7.5c0,0.9-0.7,1.6-1.6,1.6h-13.3V42.6L170.1,42.6L170.1,42.6z"/>
	<polygon class="st3" points="134,110.6 148.1,110.6 148.1,129.6 132,129.6 134,110.6 	"/>
	<polygon class="st4" points="132,129.6 132,129.6 148.1,129.6 148.1,148.6 130,148.6 132,129.6 	"/>
	<polygon class="st3" points="130,148.6 130,148.6 148.1,148.6 148.1,167.7 127.9,167.7 130,148.6 	"/>
	<polygon class="st4" points="136,91.5 148.1,91.5 148.1,110.6 134,110.6 136,91.5 	"/>
	<polygon class="st4" points="140.1,53.4 148.1,53.4 148.1,72.5 138,72.5 140.1,53.4 	"/>
	<polygon class="st3" points="138,72.5 138,72.5 148.1,72.5 148.1,91.5 136,91.5 138,72.5 	"/>
	<path class="st3" d="M136.4,42.6h11.7v10.7h-11.7c-0.9,0-1.6-0.7-1.6-1.6v-7.5C134.8,43.3,135.5,42.6,136.4,42.6L136.4,42.6
		L136.4,42.6z"/>
	<path class="st5" d="M93.6,177.2l-21-15.5c0,0-5.7-2.3-15.5-5.2c28.6-4.9,64.2,2.8,92.1,6.7c19,2.6,33.1-1.9,51.8-2.7
		c15.4-0.6,30.2,7.3,43,16.9c-19,0.4-43.7,2.3-61.4,8.3C149.7,196.9,114.7,192.7,93.6,177.2L93.6,177.2z"/>
	<path class="st6" d="M16.9,180.9c11.6-8.1,21.6-21.2,39.8-24.4c0.2,0,0.3-0.1,0.5-0.1c9.8,2.9,15.5,5.2,15.5,5.2l21,15.5
		c21,15.5,56,19.7,89,8.4c17.7-6.1,42.3-7.9,61.4-8.3c11.7,8.8,21.6,18.9,28.6,24.9c0,0-270,9.1-272,4.5
		C-2.9,198.5,8.5,186.8,16.9,180.9L16.9,180.9z"/>
	<rect x="141.9" y="8.4" class="st7" width="36.1" height="34.2"/>
	<path class="st8" d="M181.2,8.4V5.1c0-1.1-0.9-1.9-1.9-1.9h-3.8V1.4c0-0.8-0.6-1.4-1.4-1.4h-28.4c-0.8,0-1.4,0.6-1.4,1.4v1.8h-3.8
		c-1.1,0-1.9,0.9-1.9,1.9v3.2H181.2L181.2,8.4z"/>
	<path class="st9" d="M141.9,8.4v34.2h8.6V21.9c0-5.2,4.2-9.5,9.5-9.5s9.5,4.2,9.5,9.5v20.7h8.6V8.4H141.9L141.9,8.4z"/>
	<circle class="st10" cx="159.9" cy="81.4" r="6.1"/>
	<path class="st10" d="M166,120.1c0,3.4-2.7,6.1-6.1,6.1s-6.1-2.7-6.1-6.1s2.7-6.1,6.1-6.1S166,116.7,166,120.1z"/>
</g>
</svg>
