<?xml version="1.0" encoding="UTF-8"?><svg id="Calque_2" xmlns="http://www.w3.org/2000/svg" viewBox="0 0 272.64 229.16"><defs><style>.cls-1{fill:#db7761;}.cls-2{fill:#fdeb1a;opacity:.22;}.cls-3{fill:#625749;}.cls-4{fill:#aa5e4c;}.cls-5{fill:#efd3b2;}.cls-6{fill:#b4a189;}.cls-7{fill:#e7c292;}.cls-8{fill:#cb362f;}.cls-9{fill:#0f5e7e;}.cls-10{fill:#ffed00;}.cls-11{fill:#3d7597;}</style></defs><g id="Layer_2"><polygon class="cls-7" points="187.86 150.7 131.98 150.7 134 131.65 185.84 131.65 187.86 150.7 187.86 150.7"/><polygon class="cls-8" points="189.88 169.74 129.96 169.74 131.98 150.7 187.86 150.7 189.88 169.74 189.88 169.74"/><polygon class="cls-7" points="191.9 188.78 160.03 188.78 159.82 188.78 127.94 188.78 129.96 169.74 189.88 169.74 191.9 188.78 191.9 188.78"/><polygon class="cls-8" points="183.82 112.61 185.84 131.65 134 131.65 136.02 112.61 183.82 112.61 183.82 112.61"/><polygon class="cls-8" points="140.06 74.52 159.82 74.52 160.03 74.52 179.78 74.52 181.8 93.57 138.04 93.57 140.06 74.52 140.06 74.52"/><polygon class="cls-7" points="138.04 93.57 181.8 93.57 183.82 112.61 136.02 112.61 138.04 93.57 138.04 93.57"/><path class="cls-7" d="m134.79,72.82c0,.9.73,1.62,1.62,1.62h47c.9,0,1.62-.73,1.62-1.62v-7.49c0-.9-.73-1.62-1.62-1.62h-47c-.9,0-1.62.73-1.62,1.62v7.49h0Z"/><polygon class="cls-5" points="170.13 131.65 185.84 131.65 187.86 150.7 170.13 150.7 170.13 131.65 170.13 131.65"/><polygon class="cls-1" points="170.13 150.7 187.86 150.7 189.88 169.74 170.13 169.74 170.13 150.7 170.13 150.7"/><polygon class="cls-5" points="170.13 169.74 189.88 169.74 191.9 188.78 170.13 188.78 170.13 169.74 170.13 169.74"/><polygon class="cls-1" points="170.13 112.61 183.82 112.61 185.84 131.65 170.13 131.65 170.13 112.61 170.13 112.61"/><polygon class="cls-1" points="170.13 74.52 179.78 74.52 181.8 93.57 170.13 93.57 170.13 74.52 170.13 74.52"/><polygon class="cls-5" points="170.13 93.57 181.8 93.57 183.82 112.61 170.13 112.61 170.13 93.57 170.13 93.57"/><path class="cls-5" d="m170.13,63.7h13.29c.9,0,1.62.73,1.62,1.62v7.49c0,.9-.73,1.62-1.62,1.62h-13.29v-10.74h0Z"/><polygon class="cls-6" points="134 131.65 148.14 131.65 148.14 150.7 131.98 150.7 134 131.65 134 131.65"/><polygon class="cls-4" points="131.98 150.7 131.98 150.7 148.14 150.7 148.14 169.74 129.96 169.74 131.98 150.7 131.98 150.7"/><polygon class="cls-6" points="129.96 169.74 129.96 169.74 148.14 169.74 148.14 188.78 127.94 188.78 129.96 169.74 129.96 169.74"/><polygon class="cls-4" points="136.02 112.61 148.14 112.61 148.14 131.65 134 131.65 136.02 112.61 136.02 112.61"/><polygon class="cls-4" points="140.06 74.52 148.14 74.52 148.14 93.57 138.04 93.57 140.06 74.52 140.06 74.52"/><polygon class="cls-6" points="138.04 93.57 138.04 93.57 148.14 93.57 148.14 112.61 136.02 112.61 138.04 93.57 138.04 93.57"/><path class="cls-6" d="m136.42,63.7h11.72v10.74h-11.72c-.9,0-1.62-.73-1.62-1.62v-7.49c0-.9.73-1.62,1.62-1.62h0Z"/><path class="cls-11" d="m93.64,198.31l-21-15.54s-5.73-2.29-15.52-5.21c28.62-4.9,64.22,2.84,92.12,6.67,18.97,2.6,33.11-1.94,51.77-2.69,15.4-.62,30.24,7.33,43,16.89-19.02.43-43.66,2.29-61.36,8.34-32.97,11.26-68,7.09-89-8.45Z"/><path class="cls-9" d="m16.85,202.01c11.56-8.09,21.64-21.17,39.76-24.37.17-.03.34-.05.51-.08,9.8,2.93,15.52,5.21,15.52,5.21l21,15.54c21,15.54,56.03,19.71,89,8.45,17.7-6.05,42.34-7.91,61.36-8.34,11.69,8.76,21.63,18.86,28.64,24.94,0,0-269.99,9.12-271.97,4.51-3.55-8.28,7.82-20,16.18-25.85Z"/><rect class="cls-10" x="141.85" y="29.48" width="36.13" height="34.22"/><path class="cls-7" d="m181.22,29.48v-3.24c0-1.06-.86-1.92-1.92-1.92h-3.79v-1.81c0-.77-.63-1.4-1.4-1.4h-28.39c-.78,0-1.4.63-1.4,1.4v1.81h-3.79c-1.06,0-1.92.86-1.92,1.92v3.24h42.6Z"/><path class="cls-6" d="m141.85,29.48v34.22h8.59v-20.72c0-5.23,4.24-9.47,9.47-9.47s9.47,4.24,9.47,9.47v20.72h8.59V29.48h-36.13Z"/><circle class="cls-3" cx="159.92" cy="102.52" r="6.1"/><path class="cls-3" d="m166.02,141.17c0,3.37-2.73,6.09-6.1,6.09s-6.1-2.73-6.1-6.09,2.73-6.09,6.1-6.09,6.1,2.73,6.1,6.09Z"/><circle class="cls-2" cx="160.34" cy="48.21" r="48.21"/></g></svg>